<?xml version="1.0" encoding="utf-8"?>
<!DOCTYPE svg PUBLIC "-//W3C//DTD SVG 1.1//EN" "http://www.w3.org/Graphics/SVG/1.1/DTD/svg11.dtd">
<svg version="1.1"
	 id="svg2" xmlns:dc="http://purl.org/dc/elements/1.1/" xmlns:cc="http://creativecommons.org/ns#" xmlns:rdf="http://www.w3.org/1999/02/22-rdf-syntax-ns#" xmlns:svg="http://www.w3.org/2000/svg" xmlns:sodipodi="http://sodipodi.sourceforge.net/DTD/sodipodi-0.dtd" xmlns:inkscape="http://www.inkscape.org/namespaces/inkscape" inkscape:version="0.48.2 r9819" sodipodi:docname="VividCortex_logo_PMS.eps"
	 xmlns="http://www.w3.org/2000/svg" xmlns:xlink="http://www.w3.org/1999/xlink" x="0px" y="0px" width="333.063px"
	 height="82.234px" viewBox="-23.843 -345.933 333.063 82.234" enable-background="new -23.843 -345.933 333.063 82.234"
	 xml:space="preserve">
<sodipodi:namedview  id="namedview4" bordercolor="#666666" pagecolor="#ffffff" borderopacity="1" objecttolerance="10" gridtolerance="10" guidetolerance="10" showgrid="false" fit-margin-top="3" fit-margin-left="0" inkscape:zoom="3.4227988" inkscape:cx="179.36517" inkscape:cy="33.654872" inkscape:pageopacity="0" inkscape:pageshadow="2" inkscape:window-width="1495" inkscape:window-height="893" fit-margin-right="3" fit-margin-bottom="0" inkscape:window-x="104" inkscape:window-y="0" inkscape:current-layer="g10" inkscape:window-maximized="0">
	</sodipodi:namedview>
<g id="g3111" transform="matrix(0.79936946,0,0,0.79936946,58.131144,23.93632)">
	<path id="path22" inkscape:connector-curvature="0" fill="#4E4E55" d="M29.236-431.772h4.021l8.426,27.289l8.425-27.289h4.021
		l-10.533,33.513h-3.829L29.236-431.772"/>
	<path id="path24" inkscape:connector-curvature="0" fill="#4E4E55" d="M65.623-422.197h3.831v23.939h-3.831V-422.197z
		 M65.623-431.772h3.831v4.788h-3.831V-431.772"/>
	<path id="path26" inkscape:connector-curvature="0" fill="#4E4E55" d="M96.073-422.197h4.022l-7.66,23.939h-3.831l-7.662-23.939
		h4.021l5.554,17.952L96.073-422.197"/>
	<path id="path28" inkscape:connector-curvature="0" fill="#4E4E55" d="M111.586-422.197h3.83v23.939h-3.83V-422.197z
		 M111.586-431.772h3.83v4.788h-3.83V-431.772"/>
	<path id="path30" inkscape:connector-curvature="0" fill="#4E4E55" d="M132.173-407.02c0,2.969,2.44,5.408,5.408,5.408h4.644
		v-17.235h-7.373c-1.482,0-2.68,1.197-2.68,2.68L132.173-407.02L132.173-407.02z M146.058-398.259h-8.475
		c-5.121,0-9.239-4.118-9.239-9.24v-8.235c0-3.592,2.871-6.465,6.512-6.465h7.373v-9.574h3.83L146.058-398.259"/>
	<path id="path32" inkscape:connector-curvature="0" fill="#4E4E55" d="M171.096-398.259c-6.702,0-12.112-5.41-12.112-12.113
		v-12.496c0-4.931,3.973-8.904,8.905-8.904h11.2v3.35h-11.2c-2.73,0-5.076,2.347-5.076,5.074v13.407
		c0,4.545,3.784,8.328,8.283,8.328h7.993v3.354H171.096"/>
	<path id="path34" inkscape:connector-curvature="0" fill="#4E4E55" d="M199.97-401.612c1.96,0,3.542-1.625,3.542-3.589v-10.964
		c0-1.484-1.151-2.68-2.633-2.68h-5.267c-1.437,0-2.634,1.197-2.634,2.68v10.966c0,1.962,1.582,3.589,3.543,3.589L199.97-401.612
		L199.97-401.612z M196.522-398.259c-4.118,0-7.375-3.305-7.375-7.42v-10.052c0-3.592,2.872-6.464,6.464-6.464h5.269
		c3.59,0,6.463,2.872,6.463,6.464v10.051c0,4.118-3.257,7.42-7.372,7.42L196.522-398.259"/>
	<path id="path36" inkscape:connector-curvature="0" fill="#4E4E55" d="M220.267-422.197h2.397l1.435,2.156
		c1.437-1.436,3.112-2.156,5.267-2.156h5.745v3.351h-5.745c-2.92,0-5.267,2.394-5.267,5.267v15.32h-3.832V-422.197"/>
	<path id="path38" inkscape:connector-curvature="0" fill="#4E4E55" d="M256.656-401.612v3.353h-2.873
		c-3.781,0-6.703-2.825-6.703-6.417v-27.097h3.831v9.575h5.745v3.351h-5.745v14.171c0,1.676,1.292,3.063,2.872,3.063
		L256.656-401.612"/>
	<path id="path40" inkscape:connector-curvature="0" fill="#4E4E55" d="M271.019-410.802l7.804-1.915
		c1.295-0.288,2.25-1.388,2.25-3.016c0-1.676-1.339-3.112-2.872-3.112h-4.31c-1.58,0-2.872,1.436-2.872,3.112V-410.802z
		 M283.945-398.259h-7.563c-5.122,0-9.194-4.118-9.194-9.24v-8.235c0-3.592,2.969-6.465,6.703-6.465h4.31
		c3.735,0,6.702,2.873,6.702,6.465c0,3.016-2.347,5.694-5.22,6.365l-8.664,2.109v0.239c0,2.969,2.397,5.408,5.366,5.408h7.563
		L283.945-398.259"/>
	<path id="path42" inkscape:connector-curvature="0" fill="#4E4E55" d="M304.775-406.637c-1.63,2.776-3.401,5.698-5.028,8.379
		h-4.308l7.179-11.969l-7.179-11.971h4.308l5.028,8.379c1.674-2.776,3.445-5.697,5.027-8.379h4.308l-7.182,11.971l7.182,11.969
		h-4.308L304.775-406.637"/>
</g>
<g id="g3100" transform="matrix(0.2118982,0,0,0.2118982,-2.7289841,0.60372717)">
	<path id="path44" inkscape:connector-curvature="0" fill="#41C0D3" d="M189.96-1621.713l-56.274,97.328l171.649-97.328H189.96"/>
	<path id="path46" inkscape:connector-curvature="0" fill="#41C0D3" d="M142.141-1515.483h115.53l55.032-96.722L142.141-1515.483"/>
	<path id="path48" inkscape:connector-curvature="0" fill="#4E4E55" d="M126.891-1494.65v210.714l60.058-103.423L126.891-1494.65"/>
	<path id="path50" inkscape:connector-curvature="0" fill="#4E4E55" d="M115.118-1494.65v210.714L55.06-1387.358L115.118-1494.65"/>
	<path id="path52" inkscape:connector-curvature="0" fill="#0B8EAE" d="M251.241-1503.817H136.023l56.465,102.736L251.241-1503.817"
		/>
	<path id="path54" inkscape:connector-curvature="0" fill="#FFFFFF" d="M-9.484-1503.575h0.025l0.456-0.237h114.389l-56.465,102.736
		L-9.484-1503.575z M-70.7-1612.198l170.568,96.719H-15.664L-70.7-1612.198z M52.046-1621.713l56.269,97.328l-171.642-97.328H52.046
		z M115.118-1283.993L55.06-1387.358l60.058-107.292V-1283.993z M126.891-1494.65l60.058,107.292l-60.058,103.365V-1494.65
		L126.891-1494.65z M189.96-1621.713h115.375l-171.649,97.328L189.96-1621.713z M257.67-1515.483h-115.53l170.561-96.722
		L257.67-1515.483z M250.893-1503.575l-58.405,102.499l-56.465-102.736h114.993l-0.141,0.237H250.893z M121.167-1247.885
		l220.478-387.509H182.065l-60.873,105.294h-0.382l-60.869-105.294H-99.643l220.478,387.509v0.574l0.171-0.281l0.161,0.281
		V-1247.885"/>
	<path id="path56" inkscape:connector-curvature="0" fill="#0B8EAE" d="M-9.829-1503.817h115.216l-56.465,102.736L-9.829-1503.817"
		/>
	<path id="path58" inkscape:connector-curvature="0" fill="#41C0D3" d="M99.868-1515.483H-15.664l-55.036-96.722L99.868-1515.483"/>
	<path id="path60" inkscape:connector-curvature="0" fill="#41C0D3" d="M52.046-1621.713l56.269,97.328l-171.642-97.328H52.046"/>
</g>
</svg>
