<?xml version="1.0" encoding="utf-8"?>
<!DOCTYPE svg PUBLIC "-//W3C//DTD SVG 1.1//EN" "http://www.w3.org/Graphics/SVG/1.1/DTD/svg11.dtd">
<svg version="1.1"
	 id="svg2" xmlns:dc="http://purl.org/dc/elements/1.1/" xmlns:cc="http://creativecommons.org/ns#" xmlns:rdf="http://www.w3.org/1999/02/22-rdf-syntax-ns#" xmlns:svg="http://www.w3.org/2000/svg" xmlns:sodipodi="http://sodipodi.sourceforge.net/DTD/sodipodi-0.dtd" xmlns:inkscape="http://www.inkscape.org/namespaces/inkscape" sodipodi:docname="VividCortex_logo_PMS.eps" inkscape:version="0.48.2 r9819"
	 xmlns="http://www.w3.org/2000/svg" xmlns:xlink="http://www.w3.org/1999/xlink" x="0px" y="0px" width="333.065px"
	 height="82.234px" viewBox="-23.844 -345.934 333.065 82.234" enable-background="new -23.844 -345.934 333.065 82.234"
	 xml:space="preserve">
<sodipodi:namedview  inkscape:cy="33.654872" inkscape:cx="179.36517" inkscape:zoom="3.4227988" fit-margin-left="0" fit-margin-top="3" showgrid="false" guidetolerance="10" gridtolerance="10" objecttolerance="10" borderopacity="1" pagecolor="#ffffff" bordercolor="#666666" id="namedview4" inkscape:window-maximized="0" inkscape:current-layer="g10" inkscape:window-y="0" inkscape:window-x="104" fit-margin-bottom="0" fit-margin-right="3" inkscape:window-height="893" inkscape:window-width="1495" inkscape:pageshadow="2" inkscape:pageopacity="0">
	</sodipodi:namedview>
<g id="g3111" transform="matrix(0.79936946,0,0,0.79936946,58.131144,23.93632)">
	<path id="path22" inkscape:connector-curvature="0" fill="#FFFFFF" d="M29.236-431.774h4.022l8.426,27.291l8.425-27.291h4.023
		L43.596-398.26h-3.829L29.236-431.774"/>
	<path id="path24" inkscape:connector-curvature="0" fill="#FFFFFF" d="M65.624-422.197h3.83v23.939h-3.83V-422.197z
		 M65.624-431.774h3.83v4.789h-3.83V-431.774"/>
	<path id="path26" inkscape:connector-curvature="0" fill="#FFFFFF" d="M96.074-422.197h4.022l-7.66,23.939h-3.831l-7.662-23.939
		h4.022l5.554,17.952L96.074-422.197"/>
	<path id="path28" inkscape:connector-curvature="0" fill="#FFFFFF" d="M111.586-422.197h3.83v23.939h-3.83V-422.197z
		 M111.586-431.774h3.83v4.789h-3.83V-431.774"/>
	<path id="path30" inkscape:connector-curvature="0" fill="#FFFFFF" d="M132.173-407.02c0,2.969,2.441,5.408,5.408,5.408h4.644
		v-17.235h-7.373c-1.482,0-2.68,1.197-2.68,2.68L132.173-407.02L132.173-407.02z M146.058-398.26h-8.475
		c-5.121,0-9.238-4.117-9.238-9.239v-8.235c0-3.592,2.871-6.465,6.51-6.465h7.374v-9.574h3.83L146.058-398.26"/>
	<path id="path32" inkscape:connector-curvature="0" fill="#FFFFFF" d="M171.096-398.26c-6.702,0-12.112-5.409-12.112-12.114
		v-12.494c0-4.933,3.973-8.906,8.905-8.906h11.2v3.351h-11.2c-2.729,0-5.076,2.347-5.076,5.075v13.407
		c0,4.545,3.785,8.328,8.283,8.328h7.993v3.353H171.096"/>
	<path id="path34" inkscape:connector-curvature="0" fill="#FFFFFF" d="M199.97-401.612c1.961,0,3.543-1.625,3.543-3.589v-10.964
		c0-1.483-1.151-2.679-2.634-2.679h-5.267c-1.438,0-2.635,1.196-2.635,2.679v10.967c0,1.962,1.582,3.588,3.544,3.588L199.97-401.612
		L199.97-401.612z M196.522-398.26c-4.117,0-7.374-3.306-7.374-7.419v-10.052c0-3.593,2.872-6.465,6.464-6.465h5.269
		c3.589,0,6.464,2.872,6.464,6.465v10.051c0,4.118-3.257,7.42-7.373,7.42H196.522"/>
	<path id="path36" inkscape:connector-curvature="0" fill="#FFFFFF" d="M220.268-422.197h2.397l1.434,2.156
		c1.438-1.438,3.113-2.156,5.268-2.156h5.744v3.351h-5.744c-2.921,0-5.268,2.393-5.268,5.267v15.32h-3.831V-422.197"/>
	<path id="path38" inkscape:connector-curvature="0" fill="#FFFFFF" d="M256.656-401.612v3.352h-2.872
		c-3.781,0-6.703-2.824-6.703-6.416v-27.098h3.831v9.574h5.744v3.351h-5.744v14.171c0,1.676,1.293,3.063,2.872,3.063
		L256.656-401.612"/>
	<path id="path40" inkscape:connector-curvature="0" fill="#FFFFFF" d="M271.019-410.804l7.804-1.913
		c1.295-0.288,2.25-1.388,2.25-3.016c0-1.676-1.339-3.112-2.872-3.112h-4.31c-1.581,0-2.872,1.434-2.872,3.112V-410.804z
		 M283.945-398.26h-7.562c-5.122,0-9.194-4.117-9.194-9.239v-8.235c0-3.592,2.97-6.465,6.703-6.465h4.31
		c3.735,0,6.702,2.873,6.702,6.465c0,3.016-2.347,5.694-5.22,6.365l-8.664,2.11v0.238c0,2.97,2.397,5.408,5.366,5.408h7.563
		L283.945-398.26"/>
	<path id="path42" inkscape:connector-curvature="0" fill="#FFFFFF" d="M304.775-406.637c-1.63,2.776-3.4,5.698-5.027,8.377h-4.309
		l7.178-11.969l-7.178-11.971h4.309l5.027,8.379c1.675-2.777,3.445-5.698,5.027-8.379h4.309l-7.182,11.971l7.182,11.969h-4.309
		L304.775-406.637"/>
</g>
<g id="g3100" transform="matrix(0.2118982,0,0,0.2118982,-2.7289841,0.60372717)">
	<path id="path44" inkscape:connector-curvature="0" fill="#41C0D3" d="M189.96-1621.715l-56.276,97.33l171.649-97.33H189.96"/>
	<path id="path46" inkscape:connector-curvature="0" fill="#41C0D3" d="M142.141-1515.486h115.534l55.032-96.726L142.141-1515.486"
		/>
	<path id="path48" inkscape:connector-curvature="0" fill="#4E4E55" d="M126.891-1494.65v210.712l60.055-103.423L126.891-1494.65"/>
	<path id="path50" inkscape:connector-curvature="0" fill="#4E4E55" d="M115.116-1494.65v210.712l-60.06-103.423L115.116-1494.65"/>
	<path id="path52" inkscape:connector-curvature="0" fill="#0B8EAE" d="M251.241-1503.817H136.025l56.465,102.736L251.241-1503.817"
		/>
	<path id="path54" inkscape:connector-curvature="0" fill="#FFFFFF" d="M-9.488-1503.577h0.032l0.452-0.235h114.386l-56.465,102.736
		L-9.488-1503.577z M-70.7-1612.198l170.566,96.717h-115.53L-70.7-1612.198z M52.042-1621.715l56.276,97.33l-171.644-97.33H52.042z
		 M115.116-1283.994l-60.06-103.367l60.06-107.289V-1283.994z M126.891-1494.65l60.055,107.289l-60.055,103.367V-1494.65
		L126.891-1494.65z M189.96-1621.715h115.373l-171.649,97.33L189.96-1621.715z M257.67-1515.486H142.136l170.561-96.726
		L257.67-1515.486z M250.891-1503.577l-58.401,102.501l-56.465-102.736H251.02l-0.143,0.235H250.891z M121.167-1247.885
		l220.482-387.513H182.061L121.19-1530.1h-0.378l-60.866-105.298H-99.647l220.482,387.513v0.572l0.175-0.281l0.157,0.281V-1247.885"
		/>
	<path id="path56" inkscape:connector-curvature="0" fill="#0B8EAE" d="M-9.829-1503.817h115.216l-56.465,102.736L-9.829-1503.817"
		/>
	<path id="path58" inkscape:connector-curvature="0" fill="#41C0D3" d="M99.866-1515.486h-115.53l-55.036-96.726L99.866-1515.486"/>
	<path id="path60" inkscape:connector-curvature="0" fill="#41C0D3" d="M52.042-1621.715l56.276,97.33l-171.644-97.33H52.042"/>
</g>
</svg>
